<svg width="512" height="512" version="1.1" xmlns="http://www.w3.org/2000/svg" desc="Created with imagetracer.js version 1.2.6" ><path fill="rgb(227,43,25)" stroke="rgb(227,43,25)" stroke-width="1" opacity="0.8980392156862745" d="M 306.5 109 L 307.5 111 L 306.5 109 Z " /><path fill="rgb(227,43,25)" stroke="rgb(227,43,25)" stroke-width="1" opacity="0.8980392156862745" d="M 310.5 113 L 311.5 115 L 310.5 113 Z " /><path fill="rgb(227,43,25)" stroke="rgb(227,43,25)" stroke-width="1" opacity="0.8980392156862745" d="M 420.5 172 L 421 174.5 L 420 174.5 L 420.5 172 Z " /><path fill="rgb(227,43,25)" stroke="rgb(227,43,25)" stroke-width="1" opacity="0.8980392156862745" d="M 311.5 215 L 310.5 217 L 311.5 215 Z " /><path fill="rgb(227,43,25)" stroke="rgb(227,43,25)" stroke-width="1" opacity="0.8980392156862745" d="M 307.5 219 L 306.5 221 L 307.5 219 Z " /><path fill="rgb(0,0,0)" stroke="rgb(0,0,0)" stroke-width="1" opacity="0" d="M 0 0 L 238 0.5 L 220.5 3 L 191.5 12 Q 158.9 26.4 136 50.5 Q 112.8 74.3 100 108.5 L 94 129.5 L 92 146.5 L 91 147.5 L 91 182.5 L 97 212.5 L 110 243.5 L 170 337.5 L 124.5 347 L 89.5 359 L 61.5 374 L 42 391.5 Q 34.3 400.3 31 413.5 L 31 430.5 Q 36.9 452.6 53.5 464 Q 68.5 476 87.5 484 L 125.5 497 L 174.5 507 L 197.5 509 L 198.5 510 L 224 511.5 L 0 512 L 0 0 Z " /><path fill="rgb(0,0,0)" stroke="rgb(0,0,0)" stroke-width="1" opacity="0" d="M 274.5 0 L 512 0 L 512 512 L 288 511.5 L 313.5 510 L 314.5 509 L 322.5 509 L 323.5 508 L 330.5 508 L 331.5 507 L 355.5 504 L 386.5 497 L 409.5 490 Q 430.1 482.6 447.5 472 Q 461.6 463.1 472 450.5 Q 478.5 442.5 481 430.5 L 481 413.5 Q 474.7 391.8 458.5 380 Q 438.8 364.2 412.5 355 L 371.5 343 L 351.5 339 L 345.5 339 L 342 337.5 L 397 252.5 L 408 231.5 L 415 212.5 L 420 190.5 L 420 182.5 L 421 181.5 L 421 147.5 L 415 117.5 L 408 98.5 Q 394.5 68.5 372.5 47 Q 351.5 26 322.5 13 L 303.5 6 L 286.5 2 L 274.5 1 L 274.5 0 Z " /><path fill="rgb(0,0,0)" stroke="rgb(0,0,0)" stroke-width="1" opacity="0" d="M 245.5 91 L 266.5 91 L 279.5 94 L 294.5 101 L 309 112 L 320 126.5 L 327 141.5 L 330 154.5 L 330 175.5 L 325 193.5 L 320 203.5 L 309 218 L 294.5 229 L 279.5 236 L 266.5 239 L 245.5 239 L 227.5 234 L 217.5 229 L 203 218 L 192 203.5 L 185 188.5 L 182 175.5 L 182 154.5 L 187 136.5 L 192 126.5 L 203 112 L 217.5 101 L 227.5 96 L 245.5 91 Z " /><path fill="rgb(249,42,21)" stroke="rgb(249,42,21)" stroke-width="1" opacity="0.24313725490196078" d="M 238.5 0 L 247 0.5 L 238.5 1 L 238.5 0 Z " /><path fill="rgb(249,42,21)" stroke="rgb(249,42,21)" stroke-width="1" opacity="0.24313725490196078" d="M 269.5 0 L 274 0.5 L 269.5 1 L 269.5 0 Z " /><path fill="rgb(249,42,21)" stroke="rgb(249,42,21)" stroke-width="1" opacity="0.24313725490196078" d="M 231.5 1 L 235 1.5 L 231.5 2 L 231.5 1 Z " /><path fill="rgb(249,42,21)" stroke="rgb(249,42,21)" stroke-width="1" opacity="0.24313725490196078" d="M 278.5 1 L 281 1.5 L 278.5 2 L 278.5 1 Z " /><path fill="rgb(249,42,21)" stroke="rgb(249,42,21)" stroke-width="1" opacity="0.24313725490196078" d="M 225.5 2 L 229 2.5 L 225.5 3 L 225.5 2 Z " /><path fill="rgb(249,42,21)" stroke="rgb(249,42,21)" stroke-width="1" opacity="0.24313725490196078" d="M 216.5 4 L 219 4.5 L 216.5 5 L 216.5 4 Z " /><path fill="rgb(249,42,21)" stroke="rgb(249,42,21)" stroke-width="1" opacity="0.24313725490196078" d="M 212.5 5 L 215 5.5 L 212.5 6 L 212.5 5 Z " /><path fill="rgb(249,42,21)" stroke="rgb(249,42,21)" stroke-width="1" opacity="0.24313725490196078" d="M 208.5 6 L 211 6.5 L 208.5 7 L 208.5 6 Z " /><path fill="rgb(249,42,21)" stroke="rgb(249,42,21)" stroke-width="1" opacity="0.24313725490196078" d="M 191.5 12 L 193 12.5 L 183.5 17 L 183.5 16 L 191.5 12 Z " /><path fill="rgb(249,42,21)" stroke="rgb(249,42,21)" stroke-width="1" opacity="0.24313725490196078" d="M 175.5 20 L 174.5 22 L 175.5 20 Z " /><path fill="rgb(249,42,21)" stroke="rgb(249,42,21)" stroke-width="1" opacity="0.24313725490196078" d="M 336.5 20 L 337.5 22 L 336.5 20 Z " /><path fill="rgb(249,42,21)" stroke="rgb(249,42,21)" stroke-width="1" opacity="0.24313725490196078" d="M 172.5 22 L 171.5 24 L 169.5 25 L 170.5 23 L 172.5 22 Z " /><path fill="rgb(249,42,21)" stroke="rgb(249,42,21)" stroke-width="1" opacity="0.24313725490196078" d="M 341.5 23 L 342.5 25 L 341.5 23 Z " /><path fill="rgb(249,42,21)" stroke="rgb(249,42,21)" stroke-width="1" opacity="0.24313725490196078" d="M 167.5 25 L 166.5 27 L 164.5 28 L 165.5 26 L 167.5 25 Z " /><path fill="rgb(249,42,21)" stroke="rgb(249,42,21)" stroke-width="1" opacity="0.24313725490196078" d="M 162.5 28 L 160.5 31 L 162.5 28 Z " /><path fill="rgb(249,42,21)" stroke="rgb(249,42,21)" stroke-width="1" opacity="0.24313725490196078" d="M 349.5 28 L 351.5 31 L 349.5 28 Z " /><path fill="rgb(249,42,21)" stroke="rgb(249,42,21)" stroke-width="1" opacity="0.24313725490196078" d="M 158.5 31 L 156.5 34 L 158.5 31 Z " /><path fill="rgb(249,42,21)" stroke="rgb(249,42,21)" stroke-width="1" opacity="0.24313725490196078" d="M 353.5 31 L 355.5 34 L 353.5 31 Z " /><path fill="rgb(249,42,21)" stroke="rgb(249,42,21)" stroke-width="1" opacity="0.24313725490196078" d="M 154.5 34 L 152.5 37 L 143.5 45 L 151.5 36 L 154.5 34 Z " /><path fill="rgb(249,42,21)" stroke="rgb(249,42,21)" stroke-width="1" opacity="0.24313725490196078" d="M 357.5 34 L 359.5 37 L 357.5 34 Z " /><path fill="rgb(249,42,21)" stroke="rgb(249,42,21)" stroke-width="1" opacity="0.24313725490196078" d="M 361.5 37 L 368.5 45 L 361.5 37 Z " /><path fill="rgb(249,42,21)" stroke="rgb(249,42,21)" stroke-width="1" opacity="0.24313725490196078" d="M 141.5 45 L 136.5 51 L 141.5 45 Z " /><path fill="rgb(249,42,21)" stroke="rgb(249,42,21)" stroke-width="1" opacity="0.24313725490196078" d="M 372.5 47 L 373.5 49 L 372.5 47 Z " /><path fill="rgb(249,42,21)" stroke="rgb(249,42,21)" stroke-width="1" opacity="0.24313725490196078" d="M 376.5 52 L 383.5 60 L 376.5 52 Z " /><path fill="rgb(249,42,21)" stroke="rgb(249,42,21)" stroke-width="1" opacity="0.24313725490196078" d="M 134.5 53 L 128 60.5 L 119.5 72 L 121 69.5 Q 126.3 59.8 134.5 53 Z " /><path fill="rgb(249,42,21)" stroke="rgb(249,42,21)" stroke-width="1" opacity="0.24313725490196078" d="M 384.5 61 L 386.5 64 L 384.5 61 Z " /><path fill="rgb(249,42,21)" stroke="rgb(249,42,21)" stroke-width="1" opacity="0.24313725490196078" d="M 387.5 65 L 389.5 68 L 387.5 65 Z " /><path fill="rgb(249,42,21)" stroke="rgb(249,42,21)" stroke-width="1" opacity="0.24313725490196078" d="M 390.5 69 L 392.5 72 L 390.5 69 Z " /><path fill="rgb(249,42,21)" stroke="rgb(249,42,21)" stroke-width="1" opacity="0.24313725490196078" d="M 118.5 73 L 117.5 75 L 118.5 73 Z " /><path fill="rgb(249,42,21)" stroke="rgb(249,42,21)" stroke-width="1" opacity="0.24313725490196078" d="M 116.5 76 L 116 77.5 L 114.5 80 L 115 78.5 L 116.5 76 Z " /><path fill="rgb(249,42,21)" stroke="rgb(249,42,21)" stroke-width="1" opacity="0.24313725490196078" d="M 396.5 78 L 397.5 80 L 396.5 78 Z " /><path fill="rgb(249,42,21)" stroke="rgb(249,42,21)" stroke-width="1" opacity="0.24313725490196078" d="M 113.5 81 L 113 82.5 L 111.5 85 L 112 83.5 L 113.5 81 Z " /><path fill="rgb(249,42,21)" stroke="rgb(249,42,21)" stroke-width="1" opacity="0.24313725490196078" d="M 399.5 83 L 400.5 85 L 399.5 83 Z " /><path fill="rgb(249,42,21)" stroke="rgb(249,42,21)" stroke-width="1" opacity="0.24313725490196078" d="M 247.5 90 L 263 90.5 L 247.5 91 L 247.5 90 Z " /><path fill="rgb(249,42,21)" stroke="rgb(249,42,21)" stroke-width="1" opacity="0.24313725490196078" d="M 241.5 91 L 245 91.5 L 241.5 92 L 241.5 91 Z " /><path fill="rgb(249,42,21)" stroke="rgb(249,42,21)" stroke-width="1" opacity="0.24313725490196078" d="M 267.5 91 L 270 91.5 L 267.5 92 L 267.5 91 Z " /><path fill="rgb(249,42,21)" stroke="rgb(249,42,21)" stroke-width="1" opacity="0.24313725490196078" d="M 233.5 93 L 236 93.5 L 233.5 94 L 233.5 93 Z " /><path fill="rgb(249,42,21)" stroke="rgb(249,42,21)" stroke-width="1" opacity="0.24313725490196078" d="M 223.5 97 L 225 97.5 L 220.5 100 L 221.5 98 L 223.5 97 Z " /><path fill="rgb(249,42,21)" stroke="rgb(249,42,21)" stroke-width="1" opacity="0.24313725490196078" d="M 104.5 98 L 105 99.5 L 103.5 102 L 103 100.5 L 104.5 98 Z " /><path fill="rgb(249,42,21)" stroke="rgb(249,42,21)" stroke-width="1" opacity="0.24313725490196078" d="M 216.5 101 L 215.5 103 L 216.5 101 Z " /><path fill="rgb(249,42,21)" stroke="rgb(249,42,21)" stroke-width="1" opacity="0.24313725490196078" d="M 213.5 103 L 211.5 106 L 204.5 112 L 210.5 105 L 213.5 103 Z " /><path fill="rgb(249,42,21)" stroke="rgb(249,42,21)" stroke-width="1" opacity="0.24313725490196078" d="M 298.5 103 L 300.5 106 L 298.5 103 Z " /><path fill="rgb(249,42,21)" stroke="rgb(249,42,21)" stroke-width="1" opacity="0.24313725490196078" d="M 302.5 106 L 307.5 112 L 302.5 106 Z " /><path fill="rgb(249,42,21)" stroke="rgb(249,42,21)" stroke-width="1" opacity="0.24313725490196078" d="M 202.5 113 L 197 119.5 L 194.5 123 L 196 120.5 L 202.5 113 Z " /><path fill="rgb(249,42,21)" stroke="rgb(249,42,21)" stroke-width="1" opacity="0.24313725490196078" d="M 309.5 113 L 314.5 119 L 309.5 113 Z " /><path fill="rgb(249,42,21)" stroke="rgb(249,42,21)" stroke-width="1" opacity="0.24313725490196078" d="M 315.5 120 L 317.5 123 L 315.5 120 Z " /><path fill="rgb(249,42,21)" stroke="rgb(249,42,21)" stroke-width="1" opacity="0.24313725490196078" d="M 193.5 124 L 192.5 126 L 193.5 124 Z " /><path fill="rgb(249,42,21)" stroke="rgb(249,42,21)" stroke-width="1" opacity="0.24313725490196078" d="M 190.5 129 L 190 130.5 L 188.5 134 L 188 132.5 L 190.5 129 Z " /><path fill="rgb(249,42,21)" stroke="rgb(249,42,21)" stroke-width="1" opacity="0.24313725490196078" d="M 93.5 134 L 94 136.5 L 93 136.5 L 93.5 134 Z " /><path fill="rgb(249,42,21)" stroke="rgb(249,42,21)" stroke-width="1" opacity="0.24313725490196078" d="M 92.5 140 L 93 143.5 L 92 143.5 L 92.5 140 Z " /><path fill="rgb(249,42,21)" stroke="rgb(249,42,21)" stroke-width="1" opacity="0.24313725490196078" d="M 419.5 140 L 420 142.5 L 419 142.5 L 419.5 140 Z " /><path fill="rgb(249,42,21)" stroke="rgb(249,42,21)" stroke-width="1" opacity="0.24313725490196078" d="M 184.5 142 L 185 144.5 L 184 144.5 L 184.5 142 Z " /><path fill="rgb(249,42,21)" stroke="rgb(249,42,21)" stroke-width="1" opacity="0.24313725490196078" d="M 91.5 147 L 92 155.5 L 91 155.5 L 91.5 147 Z " /><path fill="rgb(249,42,21)" stroke="rgb(249,42,21)" stroke-width="1" opacity="0.24313725490196078" d="M 420.5 147 L 421 151.5 L 420 151.5 L 420.5 147 Z " /><path fill="rgb(249,42,21)" stroke="rgb(249,42,21)" stroke-width="1" opacity="0.24313725490196078" d="M 182.5 150 L 183 153.5 L 182 153.5 L 182.5 150 Z " /><path fill="rgb(249,42,21)" stroke="rgb(249,42,21)" stroke-width="1" opacity="0.24313725490196078" d="M 329.5 151 L 330 153.5 L 329 153.5 L 329.5 151 Z " /><path fill="rgb(249,42,21)" stroke="rgb(249,42,21)" stroke-width="1" opacity="0.24313725490196078" d="M 181.5 156 L 182 173.5 L 181 173.5 L 181.5 156 Z " /><path fill="rgb(249,42,21)" stroke="rgb(249,42,21)" stroke-width="1" opacity="0.24313725490196078" d="M 330.5 158 L 331 171.5 L 330 171.5 L 330.5 158 Z " /><path fill="rgb(249,42,21)" stroke="rgb(249,42,21)" stroke-width="1" opacity="0.24313725490196078" d="M 182.5 176 L 183 179.5 L 182 179.5 L 182.5 176 Z " /><path fill="rgb(249,42,21)" stroke="rgb(249,42,21)" stroke-width="1" opacity="0.24313725490196078" d="M 329.5 176 L 330 178.5 L 329 178.5 L 329.5 176 Z " /><path fill="rgb(249,42,21)" stroke="rgb(249,42,21)" stroke-width="1" opacity="0.24313725490196078" d="M 91.5 177 L 92 182.5 L 91 182.5 L 91.5 177 Z " /><path fill="rgb(249,42,21)" stroke="rgb(249,42,21)" stroke-width="1" opacity="0.24313725490196078" d="M 420.5 179 L 421 181.5 L 420 181.5 L 420.5 179 Z " /><path fill="rgb(249,42,21)" stroke="rgb(249,42,21)" stroke-width="1" opacity="0.24313725490196078" d="M 184.5 185 L 185 187.5 L 184 187.5 L 184.5 185 Z " /><path fill="rgb(249,42,21)" stroke="rgb(249,42,21)" stroke-width="1" opacity="0.24313725490196078" d="M 92.5 186 L 93 190.5 L 92 190.5 L 92.5 186 Z " /><path fill="rgb(249,42,21)" stroke="rgb(249,42,21)" stroke-width="1" opacity="0.24313725490196078" d="M 419.5 188 L 420 190.5 L 419 190.5 L 419.5 188 Z " /><path fill="rgb(249,42,21)" stroke="rgb(249,42,21)" stroke-width="1" opacity="0.24313725490196078" d="M 93.5 193 L 94 195.5 L 93 195.5 L 93.5 193 Z " /><path fill="rgb(249,42,21)" stroke="rgb(249,42,21)" stroke-width="1" opacity="0.24313725490196078" d="M 188.5 196 L 191 200.5 L 189 199.5 L 188.5 196 Z " /><path fill="rgb(249,42,21)" stroke="rgb(249,42,21)" stroke-width="1" opacity="0.24313725490196078" d="M 94.5 198 L 95 200.5 L 94 200.5 L 94.5 198 Z " /><path fill="rgb(249,42,21)" stroke="rgb(249,42,21)" stroke-width="1" opacity="0.24313725490196078" d="M 192.5 204 L 193.5 206 L 192.5 204 Z " /><path fill="rgb(249,42,21)" stroke="rgb(249,42,21)" stroke-width="1" opacity="0.24313725490196078" d="M 194.5 207 L 203 216.5 L 196 210.5 L 194.5 207 Z " /><path fill="rgb(249,42,21)" stroke="rgb(249,42,21)" stroke-width="1" opacity="0.24313725490196078" d="M 317.5 207 L 315.5 210 L 317.5 207 Z " /><path fill="rgb(249,42,21)" stroke="rgb(249,42,21)" stroke-width="1" opacity="0.24313725490196078" d="M 97.5 210 L 98 212.5 L 97 212.5 L 97.5 210 Z " /><path fill="rgb(249,42,21)" stroke="rgb(249,42,21)" stroke-width="1" opacity="0.24313725490196078" d="M 314.5 211 L 309.5 217 L 314.5 211 Z " /><path fill="rgb(249,42,21)" stroke="rgb(249,42,21)" stroke-width="1" opacity="0.24313725490196078" d="M 204.5 218 L 214 226.5 L 211.5 225 L 204.5 218 Z " /><path fill="rgb(249,42,21)" stroke="rgb(249,42,21)" stroke-width="1" opacity="0.24313725490196078" d="M 307.5 218 L 302.5 224 L 307.5 218 Z " /><path fill="rgb(249,42,21)" stroke="rgb(249,42,21)" stroke-width="1" opacity="0.24313725490196078" d="M 300.5 224 L 298.5 227 L 300.5 224 Z " /><path fill="rgb(249,42,21)" stroke="rgb(249,42,21)" stroke-width="1" opacity="0.24313725490196078" d="M 215.5 227 L 216.5 229 L 215.5 227 Z " /><path fill="rgb(249,42,21)" stroke="rgb(249,42,21)" stroke-width="1" opacity="0.24313725490196078" d="M 220.5 230 L 225 232.5 L 223.5 233 L 220.5 230 Z " /><path fill="rgb(249,42,21)" stroke="rgb(249,42,21)" stroke-width="1" opacity="0.24313725490196078" d="M 105.5 232 L 108 237.5 L 107 237.5 L 105.5 232 Z " /><path fill="rgb(249,42,21)" stroke="rgb(249,42,21)" stroke-width="1" opacity="0.24313725490196078" d="M 233.5 236 L 236 236.5 L 233.5 237 L 233.5 236 Z " /><path fill="rgb(249,42,21)" stroke="rgb(249,42,21)" stroke-width="1" opacity="0.24313725490196078" d="M 241.5 238 L 245 238.5 L 241.5 239 L 241.5 238 Z " /><path fill="rgb(249,42,21)" stroke="rgb(249,42,21)" stroke-width="1" opacity="0.24313725490196078" d="M 267.5 238 L 270 238.5 L 267.5 239 L 267.5 238 Z " /><path fill="rgb(249,42,21)" stroke="rgb(249,42,21)" stroke-width="1" opacity="0.24313725490196078" d="M 108.5 239 L 112 244.5 L 110 243.5 L 108.5 239 Z " /><path fill="rgb(249,42,21)" stroke="rgb(249,42,21)" stroke-width="1" opacity="0.24313725490196078" d="M 247.5 239 L 263 239.5 L 247.5 240 L 247.5 239 Z " /><path fill="rgb(249,42,21)" stroke="rgb(249,42,21)" stroke-width="1" opacity="0.24313725490196078" d="M 399.5 247 L 398.5 249 L 399.5 247 Z " /><path fill="rgb(249,42,21)" stroke="rgb(249,42,21)" stroke-width="1" opacity="0.24313725490196078" d="M 113.5 248 L 116 251.5 L 114 250.5 L 113.5 248 Z " /><path fill="rgb(249,42,21)" stroke="rgb(249,42,21)" stroke-width="1" opacity="0.24313725490196078" d="M 396.5 252 L 395.5 254 L 396.5 252 Z " /><path fill="rgb(249,42,21)" stroke="rgb(249,42,21)" stroke-width="1" opacity="0.24313725490196078" d="M 116.5 253 L 117.5 255 L 116.5 253 Z " /><path fill="rgb(249,42,21)" stroke="rgb(249,42,21)" stroke-width="1" opacity="0.24313725490196078" d="M 394.5 255 L 393.5 257 L 394.5 255 Z " /><path fill="rgb(249,42,21)" stroke="rgb(249,42,21)" stroke-width="1" opacity="0.24313725490196078" d="M 118.5 256 L 119.5 258 L 118.5 256 Z " /><path fill="rgb(249,42,21)" stroke="rgb(249,42,21)" stroke-width="1" opacity="0.24313725490196078" d="M 392.5 258 L 391.5 260 L 392.5 258 Z " /><path fill="rgb(249,42,21)" stroke="rgb(249,42,21)" stroke-width="1" opacity="0.24313725490196078" d="M 120.5 259 L 125 265.5 L 123 264.5 L 120.5 259 Z " /><path fill="rgb(249,42,21)" stroke="rgb(249,42,21)" stroke-width="1" opacity="0.24313725490196078" d="M 387.5 266 L 386.5 268 L 387.5 266 Z " /><path fill="rgb(249,42,21)" stroke="rgb(249,42,21)" stroke-width="1" opacity="0.24313725490196078" d="M 125.5 267 L 126.5 269 L 125.5 267 Z " /><path fill="rgb(249,42,21)" stroke="rgb(249,42,21)" stroke-width="1" opacity="0.24313725490196078" d="M 385.5 269 L 384.5 271 L 385.5 269 Z " /><path fill="rgb(249,42,21)" stroke="rgb(249,42,21)" stroke-width="1" opacity="0.24313725490196078" d="M 127.5 270 L 130 273.5 L 128 272.5 L 127.5 270 Z " /><path fill="rgb(249,42,21)" stroke="rgb(249,42,21)" stroke-width="1" opacity="0.24313725490196078" d="M 130.5 275 L 131.5 277 L 130.5 275 Z " /><path fill="rgb(249,42,21)" stroke="rgb(249,42,21)" stroke-width="1" opacity="0.24313725490196078" d="M 380.5 277 L 379.5 279 L 380.5 277 Z " /><path fill="rgb(249,42,21)" stroke="rgb(249,42,21)" stroke-width="1" opacity="0.24313725490196078" d="M 132.5 278 L 133.5 280 L 132.5 278 Z " /><path fill="rgb(249,42,21)" stroke="rgb(249,42,21)" stroke-width="1" opacity="0.24313725490196078" d="M 378.5 280 L 377.5 282 L 378.5 280 Z " /><path fill="rgb(249,42,21)" stroke="rgb(249,42,21)" stroke-width="1" opacity="0.24313725490196078" d="M 134.5 281 L 137 284.5 L 135 283.5 L 134.5 281 Z " /><path fill="rgb(249,42,21)" stroke="rgb(249,42,21)" stroke-width="1" opacity="0.24313725490196078" d="M 137.5 286 L 138.5 288 L 137.5 286 Z " /><path fill="rgb(249,42,21)" stroke="rgb(249,42,21)" stroke-width="1" opacity="0.24313725490196078" d="M 373.5 288 L 372.5 290 L 373.5 288 Z " /><path fill="rgb(249,42,21)" stroke="rgb(249,42,21)" stroke-width="1" opacity="0.24313725490196078" d="M 139.5 289 L 140.5 291 L 139.5 289 Z " /><path fill="rgb(249,42,21)" stroke="rgb(249,42,21)" stroke-width="1" opacity="0.24313725490196078" d="M 371.5 291 L 370.5 293 L 371.5 291 Z " /><path fill="rgb(249,42,21)" stroke="rgb(249,42,21)" stroke-width="1" opacity="0.24313725490196078" d="M 141.5 292 L 144 295.5 L 142 294.5 L 141.5 292 Z " /><path fill="rgb(249,42,21)" stroke="rgb(249,42,21)" stroke-width="1" opacity="0.24313725490196078" d="M 368.5 296 L 367.5 298 L 368.5 296 Z " /><path fill="rgb(249,42,21)" stroke="rgb(249,42,21)" stroke-width="1" opacity="0.24313725490196078" d="M 144.5 297 L 145.5 299 L 144.5 297 Z " /><path fill="rgb(249,42,21)" stroke="rgb(249,42,21)" stroke-width="1" opacity="0.24313725490196078" d="M 366.5 299 L 365.5 301 L 366.5 299 Z " /><path fill="rgb(249,42,21)" stroke="rgb(249,42,21)" stroke-width="1" opacity="0.24313725490196078" d="M 146.5 300 L 151 306.5 L 149 305.5 L 146.5 300 Z " /><path fill="rgb(249,42,21)" stroke="rgb(249,42,21)" stroke-width="1" opacity="0.24313725490196078" d="M 364.5 302 L 363.5 304 L 364.5 302 Z " /><path fill="rgb(249,42,21)" stroke="rgb(249,42,21)" stroke-width="1" opacity="0.24313725490196078" d="M 361.5 307 L 360.5 309 L 361.5 307 Z " /><path fill="rgb(249,42,21)" stroke="rgb(249,42,21)" stroke-width="1" opacity="0.24313725490196078" d="M 151.5 308 L 152.5 310 L 151.5 308 Z " /><path fill="rgb(249,42,21)" stroke="rgb(249,42,21)" stroke-width="1" opacity="0.24313725490196078" d="M 359.5 310 L 358.5 312 L 359.5 310 Z " /><path fill="rgb(249,42,21)" stroke="rgb(249,42,21)" stroke-width="1" opacity="0.24313725490196078" d="M 153.5 311 L 156 314.5 L 154 313.5 L 153.5 311 Z " /><path fill="rgb(249,42,21)" stroke="rgb(249,42,21)" stroke-width="1" opacity="0.24313725490196078" d="M 357.5 313 L 356.5 315 L 357.5 313 Z " /><path fill="rgb(249,42,21)" stroke="rgb(249,42,21)" stroke-width="1" opacity="0.24313725490196078" d="M 156.5 316 L 157.5 318 L 156.5 316 Z " /><path fill="rgb(249,42,21)" stroke="rgb(249,42,21)" stroke-width="1" opacity="0.24313725490196078" d="M 354.5 318 L 353.5 320 L 354.5 318 Z " /><path fill="rgb(249,42,21)" stroke="rgb(249,42,21)" stroke-width="1" opacity="0.24313725490196078" d="M 158.5 319 L 159.5 321 L 158.5 319 Z " /><path fill="rgb(249,42,21)" stroke="rgb(249,42,21)" stroke-width="1" opacity="0.24313725490196078" d="M 352.5 321 L 351.5 323 L 352.5 321 Z " /><path fill="rgb(249,42,21)" stroke="rgb(249,42,21)" stroke-width="1" opacity="0.24313725490196078" d="M 160.5 322 L 163 325.5 L 161 324.5 L 160.5 322 Z " /><path fill="rgb(249,42,21)" stroke="rgb(249,42,21)" stroke-width="1" opacity="0.24313725490196078" d="M 350.5 324 L 349.5 326 L 350.5 324 Z " /><path fill="rgb(249,42,21)" stroke="rgb(249,42,21)" stroke-width="1" opacity="0.24313725490196078" d="M 163.5 327 L 164.5 329 L 163.5 327 Z " /><path fill="rgb(249,42,21)" stroke="rgb(249,42,21)" stroke-width="1" opacity="0.24313725490196078" d="M 347.5 329 L 346.5 331 L 347.5 329 Z " /><path fill="rgb(249,42,21)" stroke="rgb(249,42,21)" stroke-width="1" opacity="0.24313725490196078" d="M 165.5 330 L 166.5 332 L 165.5 330 Z " /><path fill="rgb(249,42,21)" stroke="rgb(249,42,21)" stroke-width="1" opacity="0.24313725490196078" d="M 345.5 332 L 344.5 334 L 345.5 332 Z " /><path fill="rgb(249,42,21)" stroke="rgb(249,42,21)" stroke-width="1" opacity="0.24313725490196078" d="M 167.5 333 L 170 336.5 L 168 335.5 L 167.5 333 Z " /><path fill="rgb(252,49,24)" stroke="rgb(252,49,24)" stroke-width="1" opacity="0.8549019607843137" d="M 247.5 0 L 254 0.5 L 247.5 1 L 247.5 0 Z " /><path fill="rgb(252,49,24)" stroke="rgb(252,49,24)" stroke-width="1" opacity="0.8549019607843137" d="M 264.5 0 L 269 0.5 L 264.5 1 L 264.5 0 Z " /><path fill="rgb(252,49,24)" stroke="rgb(252,49,24)" stroke-width="1" opacity="0.8549019607843137" d="M 235.5 1 L 238 1.5 L 235.5 2 L 235.5 1 Z " /><path fill="rgb(252,49,24)" stroke="rgb(252,49,24)" stroke-width="1" opacity="0.8549019607843137" d="M 222.5 3 L 225 3.5 L 222.5 4 L 222.5 3 Z " /><path fill="rgb(252,49,24)" stroke="rgb(252,49,24)" stroke-width="1" opacity="0.8549019607843137" d="M 176.5 20 L 175.5 22 L 176.5 20 Z " /><path fill="rgb(252,49,24)" stroke="rgb(252,49,24)" stroke-width="1" opacity="0.8549019607843137" d="M 163.5 28 L 162.5 30 L 163.5 28 Z " /><path fill="rgb(252,49,24)" stroke="rgb(252,49,24)" stroke-width="1" opacity="0.8549019607843137" d="M 159.5 31 L 158.5 33 L 159.5 31 Z " /><path fill="rgb(252,49,24)" stroke="rgb(252,49,24)" stroke-width="1" opacity="0.8549019607843137" d="M 155.5 34 L 154.5 36 L 155.5 34 Z " /><path fill="rgb(252,49,24)" stroke="rgb(252,49,24)" stroke-width="1" opacity="0.8549019607843137" d="M 151.5 37 L 148.5 41 L 151.5 37 Z " /><path fill="rgb(252,49,24)" stroke="rgb(252,49,24)" stroke-width="1" opacity="0.8549019607843137" d="M 142.5 45 L 135.5 53 L 142.5 45 Z " /><path fill="rgb(252,49,24)" stroke="rgb(252,49,24)" stroke-width="1" opacity="0.8549019607843137" d="M 369.5 45 L 371.5 48 L 369.5 45 Z " /><path fill="rgb(252,49,24)" stroke="rgb(252,49,24)" stroke-width="1" opacity="0.8549019607843137" d="M 373.5 49 L 375.5 52 L 373.5 49 Z " /><path fill="rgb(252,49,24)" stroke="rgb(252,49,24)" stroke-width="1" opacity="0.8549019607843137" d="M 130.5 58 L 128.5 61 L 130.5 58 Z " /><path fill="rgb(252,49,24)" stroke="rgb(252,49,24)" stroke-width="1" opacity="0.8549019607843137" d="M 126.5 63 L 125.5 65 L 126.5 63 Z " /><path fill="rgb(252,49,24)" stroke="rgb(252,49,24)" stroke-width="1" opacity="0.8549019607843137" d="M 123.5 67 L 122.5 69 L 123.5 67 Z " /><path fill="rgb(252,49,24)" stroke="rgb(252,49,24)" stroke-width="1" opacity="0.8549019607843137" d="M 120.5 71 L 119.5 73 L 120.5 71 Z " /><path fill="rgb(252,49,24)" stroke="rgb(252,49,24)" stroke-width="1" opacity="0.8549019607843137" d="M 118.5 74 L 117.5 76 L 118.5 74 Z " /><path fill="rgb(252,49,24)" stroke="rgb(252,49,24)" stroke-width="1" opacity="0.8549019607843137" d="M 220.5 98 L 219.5 100 L 220.5 98 Z " /><path fill="rgb(252,49,24)" stroke="rgb(252,49,24)" stroke-width="1" opacity="0.8549019607843137" d="M 215.5 101 L 214.5 103 L 215.5 101 Z " /><path fill="rgb(252,49,24)" stroke="rgb(252,49,24)" stroke-width="1" opacity="0.8549019607843137" d="M 212.5 103 L 211.5 105 L 212.5 103 Z " /><path fill="rgb(252,49,24)" stroke="rgb(252,49,24)" stroke-width="1" opacity="0.8549019607843137" d="M 208.5 106 L 197.5 118 L 208.5 106 Z " /><path fill="rgb(252,49,24)" stroke="rgb(252,49,24)" stroke-width="1" opacity="0.8549019607843137" d="M 308.5 111 L 309.5 113 L 308.5 111 Z " /><path fill="rgb(252,49,24)" stroke="rgb(252,49,24)" stroke-width="1" opacity="0.8549019607843137" d="M 195.5 120 L 194.5 122 L 195.5 120 Z " /><path fill="rgb(252,49,24)" stroke="rgb(252,49,24)" stroke-width="1" opacity="0.8549019607843137" d="M 193.5 123 L 192.5 125 L 193.5 123 Z " /><path fill="rgb(252,49,24)" stroke="rgb(252,49,24)" stroke-width="1" opacity="0.8549019607843137" d="M 190.5 128 L 189.5 130 L 190.5 128 Z " /><path fill="rgb(252,49,24)" stroke="rgb(252,49,24)" stroke-width="1" opacity="0.8549019607843137" d="M 94.5 131 L 95 133.5 L 94 133.5 L 94.5 131 Z " /><path fill="rgb(252,49,24)" stroke="rgb(252,49,24)" stroke-width="1" opacity="0.8549019607843137" d="M 93.5 137 L 94 139.5 L 93 139.5 L 93.5 137 Z " /><path fill="rgb(252,49,24)" stroke="rgb(252,49,24)" stroke-width="1" opacity="0.8549019607843137" d="M 92.5 144 L 93 146.5 L 92 146.5 L 92.5 144 Z " /><path fill="rgb(252,49,24)" stroke="rgb(252,49,24)" stroke-width="1" opacity="0.8549019607843137" d="M 420.5 152 L 421 156.5 L 420 156.5 L 420.5 152 Z " /><path fill="rgb(252,49,24)" stroke="rgb(252,49,24)" stroke-width="1" opacity="0.8549019607843137" d="M 91.5 156 L 92 162.5 L 91 162.5 L 91.5 156 Z " /><path fill="rgb(252,49,24)" stroke="rgb(252,49,24)" stroke-width="1" opacity="0.8549019607843137" d="M 91.5 167 L 92 176.5 L 91 176.5 L 91.5 167 Z " /><path fill="rgb(252,49,24)" stroke="rgb(252,49,24)" stroke-width="1" opacity="0.8549019607843137" d="M 420.5 175 L 421 178.5 L 420 178.5 L 420.5 175 Z " /><path fill="rgb(252,49,24)" stroke="rgb(252,49,24)" stroke-width="1" opacity="0.8549019607843137" d="M 92.5 183 L 93 185.5 L 92 185.5 L 92.5 183 Z " /><path fill="rgb(252,49,24)" stroke="rgb(252,49,24)" stroke-width="1" opacity="0.8549019607843137" d="M 189.5 200 L 190.5 202 L 189.5 200 Z " /><path fill="rgb(252,49,24)" stroke="rgb(252,49,24)" stroke-width="1" opacity="0.8549019607843137" d="M 192.5 205 L 193.5 207 L 192.5 205 Z " /><path fill="rgb(252,49,24)" stroke="rgb(252,49,24)" stroke-width="1" opacity="0.8549019607843137" d="M 194.5 208 L 195.5 210 L 194.5 208 Z " /><path fill="rgb(252,49,24)" stroke="rgb(252,49,24)" stroke-width="1" opacity="0.8549019607843137" d="M 197.5 212 L 208.5 224 L 197.5 212 Z " /><path fill="rgb(252,49,24)" stroke="rgb(252,49,24)" stroke-width="1" opacity="0.8549019607843137" d="M 309.5 217 L 308.5 219 L 309.5 217 Z " /><path fill="rgb(252,49,24)" stroke="rgb(252,49,24)" stroke-width="1" opacity="0.8549019607843137" d="M 211.5 225 L 212.5 227 L 211.5 225 Z " /><path fill="rgb(252,49,24)" stroke="rgb(252,49,24)" stroke-width="1" opacity="0.8549019607843137" d="M 214.5 227 L 215.5 229 L 214.5 227 Z " /><path fill="rgb(252,49,24)" stroke="rgb(252,49,24)" stroke-width="1" opacity="0.8549019607843137" d="M 219.5 230 L 220.5 232 L 219.5 230 Z " /><path fill="rgb(252,49,24)" stroke="rgb(252,49,24)" stroke-width="1" opacity="0.8549019607843137" d="M 116.5 252 L 117.5 254 L 116.5 252 Z " /><path fill="rgb(252,49,24)" stroke="rgb(252,49,24)" stroke-width="1" opacity="0.8549019607843137" d="M 118.5 255 L 119.5 257 L 118.5 255 Z " /><path fill="rgb(252,49,24)" stroke="rgb(252,49,24)" stroke-width="1" opacity="0.8549019607843137" d="M 125.5 266 L 126.5 268 L 125.5 266 Z " /><path fill="rgb(252,49,24)" stroke="rgb(252,49,24)" stroke-width="1" opacity="0.8549019607843137" d="M 130.5 274 L 131.5 276 L 130.5 274 Z " /><path fill="rgb(252,49,24)" stroke="rgb(252,49,24)" stroke-width="1" opacity="0.8549019607843137" d="M 132.5 277 L 133.5 279 L 132.5 277 Z " /><path fill="rgb(252,49,24)" stroke="rgb(252,49,24)" stroke-width="1" opacity="0.8549019607843137" d="M 137.5 285 L 138.5 287 L 137.5 285 Z " /><path fill="rgb(252,49,24)" stroke="rgb(252,49,24)" stroke-width="1" opacity="0.8549019607843137" d="M 144.5 296 L 145.5 298 L 144.5 296 Z " /><path fill="rgb(252,49,24)" stroke="rgb(252,49,24)" stroke-width="1" opacity="0.8549019607843137" d="M 151.5 307 L 152.5 309 L 151.5 307 Z " /><path fill="rgb(252,49,24)" stroke="rgb(252,49,24)" stroke-width="1" opacity="0.8549019607843137" d="M 156.5 315 L 157.5 317 L 156.5 315 Z " /><path fill="rgb(252,49,24)" stroke="rgb(252,49,24)" stroke-width="1" opacity="0.8549019607843137" d="M 158.5 318 L 159.5 320 L 158.5 318 Z " /><path fill="rgb(252,49,24)" stroke="rgb(252,49,24)" stroke-width="1" opacity="0.8549019607843137" d="M 163.5 326 L 164.5 328 L 163.5 326 Z " /><path fill="rgb(253,48,24)" stroke="rgb(253,48,24)" stroke-width="1" opacity="1" d="M 254.5 0 L 256 0.5 L 256 90 L 239.5 91 L 220.5 98 Q 206.6 105.6 197 117.5 Q 187.7 128.7 183 144.5 L 181 154.5 L 181 175.5 Q 186.7 207.8 208.5 224 Q 217.5 231.5 229.5 236 L 245.5 240 L 256 240 L 256 458.5 L 252.5 459 L 245 454.5 L 109 239.5 Q 99.8 222.2 95 200.5 L 93 190.5 L 93 183.5 L 92 182.5 Q 93.5 171 91 163.5 L 92 162.5 L 92 147.5 L 93 146.5 L 95 129.5 L 104 100.5 Q 120 65 147.5 41 Q 167.7 23.2 194.5 12 L 220.5 4 L 237.5 2 L 238.5 1 L 253.5 1 L 254.5 0 Z " /><path fill="rgb(230,30,20)" stroke="rgb(230,30,20)" stroke-width="1" opacity="1" d="M 256 0 L 262.5 1 L 275.5 1 L 292.5 4 L 320.5 13 Q 357.5 29.5 382 58.5 Q 400.2 79.8 411 108.5 L 417 128.5 L 420 145.5 L 421 171.5 L 420 172.5 L 419 191.5 L 415 209.5 Q 408.6 231.6 398 249.5 L 341 337.5 L 341 339.5 L 275 443.5 L 263.5 458 L 256.5 460 L 256 240 L 271.5 239 L 284.5 235 Q 300.9 227.9 312 215.5 Q 323.5 203 329 184.5 L 331 174.5 L 331 155.5 Q 325.6 125.4 306.5 109 Q 297.1 100.4 284.5 95 L 271.5 91 L 256 90 L 256 0 Z " /><path fill="rgb(230,30,20)" stroke="rgb(230,30,20)" stroke-width="1" opacity="1" d="M 175.5 345 L 176.5 347 L 175.5 345 Z " /><path fill="rgb(230,30,20)" stroke="rgb(230,30,20)" stroke-width="1" opacity="1" d="M 201.5 386 L 202.5 388 L 201.5 386 Z " /><path fill="rgb(230,30,20)" stroke="rgb(230,30,20)" stroke-width="1" opacity="1" d="M 227.5 427 L 228.5 429 L 227.5 427 Z " /><path fill="rgb(230,30,20)" stroke="rgb(230,30,20)" stroke-width="1" opacity="1" d="M 243.5 452 L 244.5 454 L 243.5 452 Z " /><path fill="rgb(19,195,122)" stroke="rgb(19,195,122)" stroke-width="1" opacity="0.9921568627450981" d="M 341.5 339 L 354.5 340 L 385.5 347 L 423.5 360 Q 452.3 371.7 471 393.5 L 480 411.5 L 481 428.5 L 479 436.5 L 474 446.5 L 457.5 464 Q 443.4 475.4 425.5 483 Q 401.1 493.6 372.5 500 L 341.5 506 L 320.5 508 L 319.5 509 L 309.5 509 L 308.5 510 L 298.5 510 L 297.5 511 L 280.5 511 L 279.5 512 L 256 512 L 256 460.5 L 258.5 460 L 267 455.5 L 341.5 339 Z " /><path fill="rgb(95,221,86)" stroke="rgb(95,221,86)" stroke-width="1" opacity="0.49019607843137253" d="M 167.5 338 L 171 338.5 L 167.5 339 L 167.5 338 Z " /><path fill="rgb(95,221,86)" stroke="rgb(95,221,86)" stroke-width="1" opacity="0.49019607843137253" d="M 342.5 338 L 345 338.5 L 342.5 339 L 342.5 338 Z " /><path fill="rgb(95,221,86)" stroke="rgb(95,221,86)" stroke-width="1" opacity="0.49019607843137253" d="M 160.5 339 L 165 339.5 L 160.5 340 L 160.5 339 Z " /><path fill="rgb(95,221,86)" stroke="rgb(95,221,86)" stroke-width="1" opacity="0.49019607843137253" d="M 349.5 339 L 352 339.5 L 349.5 340 L 349.5 339 Z " /><path fill="rgb(95,221,86)" stroke="rgb(95,221,86)" stroke-width="1" opacity="0.49019607843137253" d="M 155.5 340 L 159 340.5 L 155.5 341 L 155.5 340 Z " /><path fill="rgb(95,221,86)" stroke="rgb(95,221,86)" stroke-width="1" opacity="0.49019607843137253" d="M 150.5 341 L 154 341.5 L 150.5 342 L 150.5 341 Z " /><path fill="rgb(95,221,86)" stroke="rgb(95,221,86)" stroke-width="1" opacity="0.49019607843137253" d="M 145.5 342 L 149 342.5 L 145.5 343 L 145.5 342 Z " /><path fill="rgb(95,221,86)" stroke="rgb(95,221,86)" stroke-width="1" opacity="0.49019607843137253" d="M 140.5 343 L 144 343.5 L 140.5 344 L 140.5 343 Z " /><path fill="rgb(95,221,86)" stroke="rgb(95,221,86)" stroke-width="1" opacity="0.49019607843137253" d="M 136.5 344 L 139 344.5 L 136.5 345 L 136.5 344 Z " /><path fill="rgb(95,221,86)" stroke="rgb(95,221,86)" stroke-width="1" opacity="0.49019607843137253" d="M 132.5 345 L 135 345.5 L 132.5 346 L 132.5 345 Z " /><path fill="rgb(95,221,86)" stroke="rgb(95,221,86)" stroke-width="1" opacity="0.49019607843137253" d="M 128.5 346 L 131 346.5 L 128.5 347 L 128.5 346 Z " /><path fill="rgb(95,221,86)" stroke="rgb(95,221,86)" stroke-width="1" opacity="0.49019607843137253" d="M 124.5 347 L 127 347.5 L 121.5 349 L 121.5 348 L 124.5 347 Z " /><path fill="rgb(95,221,86)" stroke="rgb(95,221,86)" stroke-width="1" opacity="0.49019607843137253" d="M 117.5 349 L 120 349.5 L 114.5 351 L 114.5 350 L 117.5 349 Z " /><path fill="rgb(95,221,86)" stroke="rgb(95,221,86)" stroke-width="1" opacity="0.49019607843137253" d="M 102.5 354 L 104 354.5 L 97.5 357 L 97.5 356 L 102.5 354 Z " /><path fill="rgb(95,221,86)" stroke="rgb(95,221,86)" stroke-width="1" opacity="0.49019607843137253" d="M 94.5 357 L 96 357.5 L 92.5 359 L 92.5 358 L 94.5 357 Z " /><path fill="rgb(95,221,86)" stroke="rgb(95,221,86)" stroke-width="1" opacity="0.49019607843137253" d="M 89.5 359 L 91 359.5 L 83.5 363 L 83.5 362 L 89.5 359 Z " /><path fill="rgb(95,221,86)" stroke="rgb(95,221,86)" stroke-width="1" opacity="0.49019607843137253" d="M 434.5 365 L 437 366.5 L 435.5 366 L 434.5 365 Z " /><path fill="rgb(95,221,86)" stroke="rgb(95,221,86)" stroke-width="1" opacity="0.49019607843137253" d="M 73.5 367 L 72.5 369 Q 54.6 377.6 42.5 392 L 53.5 380 L 73.5 367 Z " /><path fill="rgb(95,221,86)" stroke="rgb(95,221,86)" stroke-width="1" opacity="0.49019607843137253" d="M 442.5 369 L 443.5 371 L 442.5 369 Z " /><path fill="rgb(95,221,86)" stroke="rgb(95,221,86)" stroke-width="1" opacity="0.49019607843137253" d="M 447.5 372 L 448.5 374 L 447.5 372 Z " /><path fill="rgb(95,221,86)" stroke="rgb(95,221,86)" stroke-width="1" opacity="0.49019607843137253" d="M 450.5 374 L 452.5 377 L 450.5 374 Z " /><path fill="rgb(95,221,86)" stroke="rgb(95,221,86)" stroke-width="1" opacity="0.49019607843137253" d="M 454.5 377 L 456.5 380 L 454.5 377 Z " /><path fill="rgb(95,221,86)" stroke="rgb(95,221,86)" stroke-width="1" opacity="0.49019607843137253" d="M 458.5 380 L 470.5 393 L 458.5 380 Z " /><path fill="rgb(95,221,86)" stroke="rgb(95,221,86)" stroke-width="1" opacity="0.49019607843137253" d="M 41.5 393 L 40 395.5 L 33.5 409 L 33 406.5 L 41.5 393 Z " /><path fill="rgb(95,221,86)" stroke="rgb(95,221,86)" stroke-width="1" opacity="0.49019607843137253" d="M 471.5 394 L 472.5 396 L 471.5 394 Z " /><path fill="rgb(95,221,86)" stroke="rgb(95,221,86)" stroke-width="1" opacity="0.49019607843137253" d="M 473.5 397 L 474.5 399 L 473.5 397 Z " /><path fill="rgb(95,221,86)" stroke="rgb(95,221,86)" stroke-width="1" opacity="0.49019607843137253" d="M 31.5 413 L 32 418.5 L 31 418.5 L 31.5 413 Z " /><path fill="rgb(95,221,86)" stroke="rgb(95,221,86)" stroke-width="1" opacity="0.49019607843137253" d="M 480.5 413 L 481 415.5 L 480 415.5 L 480.5 413 Z " /><path fill="rgb(95,221,86)" stroke="rgb(95,221,86)" stroke-width="1" opacity="0.49019607843137253" d="M 31.5 426 L 32 430.5 L 31 430.5 L 31.5 426 Z " /><path fill="rgb(95,221,86)" stroke="rgb(95,221,86)" stroke-width="1" opacity="0.49019607843137253" d="M 32.5 432 L 33 434.5 L 32 434.5 L 32.5 432 Z " /><path fill="rgb(95,221,86)" stroke="rgb(95,221,86)" stroke-width="1" opacity="0.49019607843137253" d="M 33.5 436 L 35 439.5 L 34 439.5 L 33.5 436 Z " /><path fill="rgb(95,221,86)" stroke="rgb(95,221,86)" stroke-width="1" opacity="0.49019607843137253" d="M 35.5 441 Q 42.1 454.4 53.5 463 L 64 470.5 L 62.5 470 Q 49.8 462.8 41 451.5 L 35 442.5 L 35.5 441 Z " /><path fill="rgb(95,221,86)" stroke="rgb(95,221,86)" stroke-width="1" opacity="0.49019607843137253" d="M 476.5 441 L 477 442.5 L 475 443.5 L 476.5 441 Z " /><path fill="rgb(95,221,86)" stroke="rgb(95,221,86)" stroke-width="1" opacity="0.49019607843137253" d="M 473.5 447 L 472.5 449 L 473.5 447 Z " /><path fill="rgb(95,221,86)" stroke="rgb(95,221,86)" stroke-width="1" opacity="0.49019607843137253" d="M 471.5 450 L 458.5 464 L 471.5 450 Z " /><path fill="rgb(95,221,86)" stroke="rgb(95,221,86)" stroke-width="1" opacity="0.49019607843137253" d="M 456.5 464 L 453.5 468 L 456.5 464 Z " /><path fill="rgb(95,221,86)" stroke="rgb(95,221,86)" stroke-width="1" opacity="0.49019607843137253" d="M 451.5 468 L 450.5 470 L 451.5 468 Z " /><path fill="rgb(95,221,86)" stroke="rgb(95,221,86)" stroke-width="1" opacity="0.49019607843137253" d="M 448.5 470 L 447.5 472 L 445.5 473 L 446.5 471 L 448.5 470 Z " /><path fill="rgb(95,221,86)" stroke="rgb(95,221,86)" stroke-width="1" opacity="0.49019607843137253" d="M 65.5 471 L 89 483.5 L 87.5 484 L 69.5 475 L 65.5 471 Z " /><path fill="rgb(95,221,86)" stroke="rgb(95,221,86)" stroke-width="1" opacity="0.49019607843137253" d="M 443.5 473 L 442.5 475 L 443.5 473 Z " /><path fill="rgb(95,221,86)" stroke="rgb(95,221,86)" stroke-width="1" opacity="0.49019607843137253" d="M 90.5 484 L 94 485.5 L 92.5 486 L 90.5 484 Z " /><path fill="rgb(95,221,86)" stroke="rgb(95,221,86)" stroke-width="1" opacity="0.49019607843137253" d="M 95.5 486 L 105 489.5 L 102.5 490 L 95.5 487 L 95.5 486 Z " /><path fill="rgb(95,221,86)" stroke="rgb(95,221,86)" stroke-width="1" opacity="0.49019607843137253" d="M 118.5 494 L 121 494.5 L 118.5 495 L 118.5 494 Z " /><path fill="rgb(95,221,86)" stroke="rgb(95,221,86)" stroke-width="1" opacity="0.49019607843137253" d="M 122.5 495 L 128 496.5 L 125.5 497 L 122.5 496 L 122.5 495 Z " /><path fill="rgb(95,221,86)" stroke="rgb(95,221,86)" stroke-width="1" opacity="0.49019607843137253" d="M 129.5 497 L 132 497.5 L 129.5 498 L 129.5 497 Z " /><path fill="rgb(95,221,86)" stroke="rgb(95,221,86)" stroke-width="1" opacity="0.49019607843137253" d="M 133.5 498 L 136 498.5 L 133.5 499 L 133.5 498 Z " /><path fill="rgb(95,221,86)" stroke="rgb(95,221,86)" stroke-width="1" opacity="0.49019607843137253" d="M 137.5 499 L 141 499.5 L 137.5 500 L 137.5 499 Z " /><path fill="rgb(95,221,86)" stroke="rgb(95,221,86)" stroke-width="1" opacity="0.49019607843137253" d="M 142.5 500 L 145 500.5 L 142.5 501 L 142.5 500 Z " /><path fill="rgb(95,221,86)" stroke="rgb(95,221,86)" stroke-width="1" opacity="0.49019607843137253" d="M 368.5 500 L 371 500.5 L 368.5 501 L 368.5 500 Z " /><path fill="rgb(95,221,86)" stroke="rgb(95,221,86)" stroke-width="1" opacity="0.49019607843137253" d="M 146.5 501 L 150 501.5 L 146.5 502 L 146.5 501 Z " /><path fill="rgb(95,221,86)" stroke="rgb(95,221,86)" stroke-width="1" opacity="0.49019607843137253" d="M 151.5 502 L 155 502.5 L 151.5 503 L 151.5 502 Z " /><path fill="rgb(95,221,86)" stroke="rgb(95,221,86)" stroke-width="1" opacity="0.49019607843137253" d="M 156.5 503 L 160 503.5 L 156.5 504 L 156.5 503 Z " /><path fill="rgb(95,221,86)" stroke="rgb(95,221,86)" stroke-width="1" opacity="0.49019607843137253" d="M 353.5 503 L 356 503.5 L 353.5 504 L 353.5 503 Z " /><path fill="rgb(95,221,86)" stroke="rgb(95,221,86)" stroke-width="1" opacity="0.49019607843137253" d="M 162.5 504 L 166 504.5 L 162.5 505 L 162.5 504 Z " /><path fill="rgb(95,221,86)" stroke="rgb(95,221,86)" stroke-width="1" opacity="0.49019607843137253" d="M 168.5 505 L 172 505.5 L 168.5 506 L 168.5 505 Z " /><path fill="rgb(95,221,86)" stroke="rgb(95,221,86)" stroke-width="1" opacity="0.49019607843137253" d="M 174.5 506 L 179 506.5 L 174.5 507 L 174.5 506 Z " /><path fill="rgb(95,221,86)" stroke="rgb(95,221,86)" stroke-width="1" opacity="0.49019607843137253" d="M 335.5 506 L 338 506.5 L 335.5 507 L 335.5 506 Z " /><path fill="rgb(95,221,86)" stroke="rgb(95,221,86)" stroke-width="1" opacity="0.49019607843137253" d="M 181.5 507 L 187 507.5 L 181.5 508 L 181.5 507 Z " /><path fill="rgb(95,221,86)" stroke="rgb(95,221,86)" stroke-width="1" opacity="0.49019607843137253" d="M 327.5 507 L 331 507.5 L 327.5 508 L 327.5 507 Z " /><path fill="rgb(95,221,86)" stroke="rgb(95,221,86)" stroke-width="1" opacity="0.49019607843137253" d="M 189.5 508 L 195 508.5 L 189.5 509 L 189.5 508 Z " /><path fill="rgb(95,221,86)" stroke="rgb(95,221,86)" stroke-width="1" opacity="0.49019607843137253" d="M 320.5 508 L 323 508.5 L 320.5 509 L 320.5 508 Z " /><path fill="rgb(95,221,86)" stroke="rgb(95,221,86)" stroke-width="1" opacity="0.49019607843137253" d="M 198.5 509 L 206 509.5 L 198.5 510 L 198.5 509 Z " /><path fill="rgb(95,221,86)" stroke="rgb(95,221,86)" stroke-width="1" opacity="0.49019607843137253" d="M 309.5 509 L 314 509.5 L 309.5 510 L 309.5 509 Z " /><path fill="rgb(95,221,86)" stroke="rgb(95,221,86)" stroke-width="1" opacity="0.49019607843137253" d="M 209.5 510 L 219 510.5 L 209.5 511 L 209.5 510 Z " /><path fill="rgb(95,221,86)" stroke="rgb(95,221,86)" stroke-width="1" opacity="0.49019607843137253" d="M 298.5 510 L 303 510.5 L 298.5 511 L 298.5 510 Z " /><path fill="rgb(95,221,86)" stroke="rgb(95,221,86)" stroke-width="1" opacity="0.49019607843137253" d="M 224.5 511 L 242 511.5 L 224.5 512 L 224.5 511 Z " /><path fill="rgb(95,221,86)" stroke="rgb(95,221,86)" stroke-width="1" opacity="0.49019607843137253" d="M 280.5 511 L 288 511.5 L 280.5 512 L 280.5 511 Z " /><path fill="rgb(97,221,85)" stroke="rgb(97,221,85)" stroke-width="1" opacity="0.996078431372549" d="M 165.5 339 Q 172.5 337.5 172 340.5 L 241 449.5 L 247.5 457 Q 250.5 459.8 256 459 L 256 511.5 L 255.5 512 L 242.5 512 L 241.5 511 L 206.5 510 L 205.5 509 L 195.5 509 L 194.5 508 L 172.5 506 L 145.5 501 L 117.5 494 L 89.5 484 L 69.5 474 Q 53.4 465.1 42 451.5 L 33 435.5 L 31 419.5 Q 35.3 394.3 52.5 382 L 74.5 367 L 96.5 357 L 127.5 347 L 165.5 339 Z " /><path fill="rgb(97,221,85)" stroke="rgb(97,221,85)" stroke-width="1" opacity="0.996078431372549" d="M 266.5 455 L 265.5 457 L 266.5 455 Z " /></svg>